<?xml version="1.0" encoding="utf-8"?>
<svg width="24" height="24" viewBox="0 0 24 24" fill="none" xmlns="http://www.w3.org/2000/svg">
  <g>
    <rect width="24" height="24" />
    <path id="Shape" d="M18 12L12 17.996C12 17.996 1.00221 18 1.00221 18C0.4487 18 0 17.5551 0 17.0066C0 17.0066 0 0.9934 0 0.9934C0 0.44476 0.44495 0 0.9934 0C0.9934 0 17.0066 0 17.0066 0C17.5552 0 18 0.45576 18 1.00247C18 1.00247 18 12 18 12L18 12ZM16 2L2 2L2 16L10 16C10 16 10 11 10 11C10 10.4872 10.386 10.0645 10.8834 10.0067C10.8834 10.0067 11 10 11 10L16 9.999L16 2L16 2ZM15.171 11.999L12 12L12 15.169L15.171 11.999L15.171 11.999Z" fill="#6B4FD3" transform="translate(3 3)" />
  </g>
</svg>